<?xml version="1.0" encoding="UTF-8" standalone="no"?>
<svg
   version="1.1"
   width="48"
   height="48"
   id="svg4569"
   sodipodi:docname="com.github.avojak.foreman.network-server-configure.svg"
   inkscape:version="1.2 (dc2aedaf03, 2022-05-15)"
   xml:space="preserve"
   xmlns:inkscape="http://www.inkscape.org/namespaces/inkscape"
   xmlns:sodipodi="http://sodipodi.sourceforge.net/DTD/sodipodi-0.dtd"
   xmlns:xlink="http://www.w3.org/1999/xlink"
   xmlns="http://www.w3.org/2000/svg"
   xmlns:svg="http://www.w3.org/2000/svg"
   xmlns:rdf="http://www.w3.org/1999/02/22-rdf-syntax-ns#"
   xmlns:cc="http://creativecommons.org/ns#"
   xmlns:dc="http://purl.org/dc/elements/1.1/"><sodipodi:namedview
     pagecolor="#ffffff"
     bordercolor="#666666"
     borderopacity="1"
     objecttolerance="10"
     gridtolerance="10"
     guidetolerance="10"
     inkscape:pageopacity="0"
     inkscape:pageshadow="2"
     inkscape:window-width="3008"
     inkscape:window-height="1631"
     id="namedview579"
     showgrid="false"
     inkscape:zoom="13"
     inkscape:cx="14.192308"
     inkscape:cy="24.115385"
     inkscape:window-x="0"
     inkscape:window-y="30"
     inkscape:window-maximized="1"
     inkscape:current-layer="svg4569"
     inkscape:showpageshadow="2"
     inkscape:pagecheckerboard="0"
     inkscape:deskcolor="#d1d1d1" /><metadata
     id="metadata42"><rdf:RDF><cc:Work
         rdf:about=""><dc:format>image/svg+xml</dc:format><dc:type
           rdf:resource="http://purl.org/dc/dcmitype/StillImage" /></cc:Work></rdf:RDF></metadata><defs
     id="defs4571"><linearGradient
       id="linearGradient4054"><stop
         id="stop4056"
         style="stop-color:#ffffff;stop-opacity:1"
         offset="0" /><stop
         id="stop4058"
         style="stop-color:#ffffff;stop-opacity:0.23529412"
         offset="0.06316455" /><stop
         id="stop4060"
         style="stop-color:#ffffff;stop-opacity:0.15686275"
         offset="0.96892834" /><stop
         id="stop4062"
         style="stop-color:#ffffff;stop-opacity:0.39215687"
         offset="1" /></linearGradient><linearGradient
       id="linearGradient3912"><stop
         id="stop3914"
         style="stop-color:#787878;stop-opacity:1"
         offset="0" /><stop
         id="stop3916"
         style="stop-color:#bebebe;stop-opacity:1"
         offset="0.35046947" /><stop
         id="stop3918"
         style="stop-color:#c8c8c8;stop-opacity:1"
         offset="0.49417919" /><stop
         id="stop3920"
         style="stop-color:#e6e6e6;stop-opacity:1"
         offset="0.58907253" /><stop
         id="stop3922"
         style="stop-color:#8c8c8c;stop-opacity:1"
         offset="1" /></linearGradient><linearGradient
       id="linearGradient3342"><stop
         id="stop3344"
         style="stop-color:#ffffff;stop-opacity:0"
         offset="0" /><stop
         id="stop3346"
         style="stop-color:#ffffff;stop-opacity:1"
         offset="1" /></linearGradient><linearGradient
       id="linearGradient10691-1"><stop
         id="stop10693-3"
         style="stop-color:#000000;stop-opacity:1"
         offset="0" /><stop
         id="stop10695-1"
         style="stop-color:#000000;stop-opacity:0"
         offset="1" /></linearGradient><linearGradient
       x1="15.573899"
       y1="46.971004"
       x2="23.578077"
       y2="46.971004"
       id="linearGradient2993"
       xlink:href="#linearGradient3342"
       gradientUnits="userSpaceOnUse"
       gradientTransform="matrix(1.1176471,0,0,1,-2.3519696,-3.4710029)"
       spreadMethod="reflect" /><radialGradient
       cx="6.702713"
       cy="73.615715"
       r="7.228416"
       fx="6.702713"
       fy="73.615715"
       id="radialGradient3001"
       xlink:href="#linearGradient10691-1"
       gradientUnits="userSpaceOnUse"
       gradientTransform="matrix(1.9368007,0,0,0.4150287,11.018182,13.447365)" /><linearGradient
       x1="361.10583"
       y1="87.050117"
       x2="361.10583"
       y2="94.396416"
       id="linearGradient3832-9"
       xlink:href="#linearGradient3912"
       gradientUnits="userSpaceOnUse"
       gradientTransform="matrix(0.9964089,0,0,1.0001438,-332.882,-50.012717)" /><linearGradient
       xlink:href="#linearGradient3880"
       id="linearGradient3887"
       x1="10"
       y1="-3"
       x2="20"
       y2="12"
       gradientUnits="userSpaceOnUse"
       gradientTransform="matrix(1.1500002,0,0,1.1666666,-0.15000354,13.333333)" /><linearGradient
       id="linearGradient3880"><stop
         style="stop-color:#ffffff;stop-opacity:1;"
         offset="0"
         id="stop3883" /><stop
         style="stop-color:#ffffff;stop-opacity:0;"
         offset="1"
         id="stop3885" /></linearGradient><linearGradient
       id="outerBackgroundGradient-5-0"><stop
         style="stop-color:#261e2b;stop-opacity:1;"
         offset="0"
         id="stop3864-8-6-4" /><stop
         style="stop-color:#352f39;stop-opacity:1;"
         offset="1"
         id="stop3866-9-1-86" /></linearGradient><linearGradient
       y2="2"
       x2="15"
       y1="24.618645"
       x1="15"
       gradientTransform="matrix(1.0500002,0,0,1.2173913,1.949997,15.73913)"
       gradientUnits="userSpaceOnUse"
       id="linearGradient4020"
       xlink:href="#outerBackgroundGradient-5-0" /><linearGradient
       id="linearGradient3924-1"><stop
         offset="0"
         style="stop-color:#ffffff;stop-opacity:1"
         id="stop3926-3" /><stop
         offset="0.06316455"
         style="stop-color:#ffffff;stop-opacity:0.23529412"
         id="stop3928-91" /><stop
         offset="0.95056331"
         style="stop-color:#ffffff;stop-opacity:0.15686275"
         id="stop3930-6" /><stop
         offset="1"
         style="stop-color:#ffffff;stop-opacity:0.39215687"
         id="stop3932-6" /></linearGradient><linearGradient
       xlink:href="#linearGradient3924-1"
       id="linearGradient3916"
       gradientUnits="userSpaceOnUse"
       gradientTransform="matrix(1.2162163,0,0,0.83783786,-5.1891986,-0.10809896)"
       x1="23.99999"
       y1="4.999989"
       x2="23.99999"
       y2="43" /><linearGradient
       xlink:href="#linearGradient3924-1-0"
       id="linearGradient3916-5"
       gradientUnits="userSpaceOnUse"
       gradientTransform="matrix(1.2162163,0,0,0.83783786,-5.1891986,-0.10809896)"
       x1="23.99999"
       y1="4.999989"
       x2="23.99999"
       y2="43" /><linearGradient
       id="linearGradient3924-1-0"><stop
         offset="0"
         style="stop-color:#ffffff;stop-opacity:1"
         id="stop3926-3-7" /><stop
         offset="0.06316455"
         style="stop-color:#ffffff;stop-opacity:0.23529412"
         id="stop3928-91-0" /><stop
         offset="0.95056331"
         style="stop-color:#ffffff;stop-opacity:0.15686275"
         id="stop3930-6-2" /><stop
         offset="1"
         style="stop-color:#ffffff;stop-opacity:0.39215687"
         id="stop3932-6-0" /></linearGradient><linearGradient
       xlink:href="#linearGradient4054"
       id="linearGradient4052"
       gradientUnits="userSpaceOnUse"
       gradientTransform="matrix(1.2162163,0,0,0.83783786,-5.1891986,-0.10809896)"
       x1="23.386202"
       y1="42.776379"
       x2="23.386202"
       y2="51.377102" /><linearGradient
       xlink:href="#linearGradient3924-1-0"
       id="linearGradient4066"
       gradientUnits="userSpaceOnUse"
       gradientTransform="matrix(1.1554773,0,0,0.83783786,-3.5186976,-0.10809896)"
       x1="23.99999"
       y1="4.999989"
       x2="23.99999"
       y2="43" /><linearGradient
       xlink:href="#linearGradient4054"
       id="linearGradient4073"
       gradientUnits="userSpaceOnUse"
       gradientTransform="matrix(1.2162163,0,0,0.83783786,-5.1891986,-0.10809896)"
       x1="24.809988"
       y1="51.419304"
       x2="24.809988"
       y2="42.989254" /><linearGradient
       x1="24.138529"
       y1="20.271303"
       x2="24.138529"
       y2="26.006231"
       id="linearGradient3030-1"
       xlink:href="#linearGradient4154"
       gradientUnits="userSpaceOnUse"
       gradientTransform="matrix(0.60015241,0,0,0.69748032,23.556394,20.860879)" /><linearGradient
       id="linearGradient4154"><stop
         id="stop4156"
         style="stop-color:#ffffff;stop-opacity:1"
         offset="0" /><stop
         id="stop4158"
         style="stop-color:#ffffff;stop-opacity:0.23529412"
         offset="0" /><stop
         id="stop4160"
         style="stop-color:#ffffff;stop-opacity:0.15686275"
         offset="1" /><stop
         id="stop4162"
         style="stop-color:#ffffff;stop-opacity:0.39215687"
         offset="1" /></linearGradient><linearGradient
       x1="24.138529"
       y1="9.712431"
       x2="24.138529"
       y2="36.594009"
       id="linearGradient3030-44"
       xlink:href="#linearGradient4154"
       gradientUnits="userSpaceOnUse"
       gradientTransform="matrix(0.70448868,0,0,0.59520312,21.241693,23.218845)" /><radialGradient
       cx="65.59787"
       cy="48.744953"
       r="31.000002"
       fx="65.59787"
       fy="48.744953"
       id="radialGradient3343"
       xlink:href="#linearGradient3242-7-3-8-0-4-58-06"
       gradientUnits="userSpaceOnUse"
       gradientTransform="matrix(0,0.95936489,-1.0436697,0,87.757875,-35.866078)" /><linearGradient
       id="linearGradient3242-7-3-8-0-4-58-06"><stop
         offset="0"
         style="stop-color:#cdf87e;stop-opacity:1"
         id="stop3244-5-8-5-6-4-3-8" /><stop
         offset="0.26238"
         style="stop-color:#a2e34f;stop-opacity:1"
         id="stop3246-9-5-1-5-3-0-7" /><stop
         offset="0.66093999"
         style="stop-color:#68b723;stop-opacity:1"
         id="stop3248-7-2-0-7-5-35-9" /><stop
         offset="1"
         style="stop-color:#1d7e0d;stop-opacity:1"
         id="stop3250-8-2-8-5-6-40-4" /></linearGradient><linearGradient
       x1="25.030451"
       y1="0.28819904"
       x2="24.795872"
       y2="15.37132"
       id="linearGradient3791"
       xlink:href="#linearGradient3309"
       gradientUnits="userSpaceOnUse"
       gradientTransform="rotate(134.10898,14.529296,5.0979469)" /><linearGradient
       x1="63.9995"
       y1="3.1001"
       x2="63.9995"
       y2="122.8994"
       id="linearGradient3309"
       gradientUnits="userSpaceOnUse"><stop
         id="stop3311"
         style="stop-color:#f6f6f6;stop-opacity:1"
         offset="0" /><stop
         id="stop3313"
         style="stop-color:#cccccc;stop-opacity:1"
         offset="1" /></linearGradient><linearGradient
       x1="21"
       y1="0"
       x2="21"
       y2="16.004715"
       id="linearGradient3793"
       xlink:href="#linearGradient3397"
       gradientUnits="userSpaceOnUse"
       gradientTransform="rotate(134.10898,14.529296,5.0979469)" /><linearGradient
       id="linearGradient3397"><stop
         id="stop3399"
         style="stop-color:#aaaaaa;stop-opacity:1"
         offset="0" /><stop
         id="stop3401"
         style="stop-color:#8c8c8c;stop-opacity:1"
         offset="1" /></linearGradient><linearGradient
       x1="25"
       y1="0"
       x2="25"
       y2="16.000105"
       id="linearGradient2967"
       xlink:href="#linearGradient3309"
       gradientUnits="userSpaceOnUse"
       gradientTransform="translate(-17.058189)" /><linearGradient
       x1="21"
       y1="0"
       x2="21"
       y2="16.004715"
       id="linearGradient2969"
       xlink:href="#linearGradient3397"
       gradientUnits="userSpaceOnUse"
       gradientTransform="translate(-17.058189)" /><linearGradient
       x1="86.132919"
       y1="105.105"
       x2="84.63858"
       y2="20.895"
       id="linearGradient2971"
       xlink:href="#linearGradient5128"
       gradientUnits="userSpaceOnUse"
       gradientTransform="matrix(0.09614231,0,0,0.09614231,1.8468935,1.9430362)" /><linearGradient
       id="linearGradient5128"><stop
         id="stop5130"
         style="stop-color:#e5e5e5;stop-opacity:1"
         offset="0" /><stop
         id="stop5132"
         style="stop-color:#ababab;stop-opacity:1"
         offset="1" /></linearGradient><linearGradient
       spreadMethod="pad"
       gradientTransform="matrix(0.6565695,-0.659788,0.7345237,0.7308691,-0.29044652,27.779933)"
       gradientUnits="userSpaceOnUse"
       xlink:href="#linearGradient954"
       id="linearGradient3432"
       y2="31.210939"
       x2="23.575972"
       y1="25.356892"
       x1="23.575972" /><linearGradient
       id="linearGradient954"><stop
         id="stop938"
         style="stop-color:#ad5f00;stop-opacity:1"
         offset="0" /><stop
         id="stop940"
         style="stop-color:#ffe16b;stop-opacity:1"
         offset="0.13482948" /><stop
         id="stop942"
         style="stop-color:#f9c440;stop-opacity:1"
         offset="0.20224422" /><stop
         id="stop944"
         style="stop-color:#fff394;stop-opacity:1"
         offset="0.26965895" /><stop
         id="stop946"
         style="stop-color:#f9c440;stop-opacity:1"
         offset="0.44650277" /><stop
         id="stop948"
         style="stop-color:#f9c440;stop-opacity:1"
         offset="0.57114136" /><stop
         id="stop950"
         style="stop-color:#ffe16b;stop-opacity:1"
         offset="0.72038066" /><stop
         id="stop952"
         style="stop-color:#ad5f00;stop-opacity:1"
         offset="1" /></linearGradient><linearGradient
       spreadMethod="pad"
       y2="31.210939"
       x2="23.575972"
       y1="25.356892"
       x1="23.575972"
       gradientTransform="matrix(0.6565695,-0.659788,0.7345237,0.7308691,-0.29044652,27.779933)"
       gradientUnits="userSpaceOnUse"
       id="linearGradient933"
       xlink:href="#linearGradient3155-40" /><linearGradient
       id="linearGradient3155-40"><stop
         offset="0"
         style="stop-color:#555761;stop-opacity:1"
         id="stop2541" /><stop
         offset="0.13482948"
         style="stop-color:#d4d4d4;stop-opacity:1"
         id="stop2543" /><stop
         offset="0.20224422"
         style="stop-color:#abacae;stop-opacity:1"
         id="stop2545" /><stop
         offset="0.26965895"
         style="stop-color:#fafafa;stop-opacity:1"
         id="stop2547" /><stop
         offset="0.44650277"
         style="stop-color:#abacae;stop-opacity:1"
         id="stop2549" /><stop
         offset="0.57114136"
         style="stop-color:#abacae;stop-opacity:1"
         id="stop2551" /><stop
         offset="0.72038066"
         style="stop-color:#d4d4d4;stop-opacity:1"
         id="stop2553" /><stop
         offset="1"
         style="stop-color:#555761;stop-opacity:1"
         id="stop2555" /></linearGradient><linearGradient
       gradientTransform="matrix(0.6380091,-0.6411367,0.8596262,0.8553492,-2.6965035,24.403847)"
       gradientUnits="userSpaceOnUse"
       xlink:href="#linearGradient3240-279"
       id="linearGradient3427"
       y2="30.000141"
       x2="30.037716"
       y1="24.989594"
       x1="30.037716" /><linearGradient
       id="linearGradient3240-279"><stop
         offset="0"
         style="stop-color:#555761;stop-opacity:1"
         id="stop2559" /><stop
         offset="0.5"
         style="stop-color:#abacae;stop-opacity:1"
         id="stop2561" /><stop
         offset="1"
         style="stop-color:#555761;stop-opacity:1"
         id="stop2563" /></linearGradient><linearGradient
       gradientTransform="matrix(0.6380091,-0.6411367,0.8596262,0.8553492,-2.8792205,24.58746)"
       gradientUnits="userSpaceOnUse"
       xlink:href="#linearGradient3223-789"
       id="linearGradient3424"
       y2="30.000141"
       x2="30.037716"
       y1="24.989594"
       x1="30.037716" /><linearGradient
       id="linearGradient3223-789"><stop
         offset="0"
         style="stop-color:#abacae;stop-opacity:1"
         id="stop2567" /><stop
         offset="0.5"
         style="stop-color:#fafafa;stop-opacity:1"
         id="stop2569" /><stop
         offset="1"
         style="stop-color:#abacae;stop-opacity:1"
         id="stop2571" /></linearGradient><linearGradient
       gradientTransform="matrix(0.6380091,-0.6411367,0.8596262,0.8553492,-2.0615635,23.765794)"
       gradientUnits="userSpaceOnUse"
       xlink:href="#linearGradient3240-279"
       id="linearGradient3421"
       y2="30.000141"
       x2="30.037716"
       y1="24.989594"
       x1="30.037716" /><linearGradient
       gradientTransform="matrix(0.6380091,-0.6411367,0.8596262,0.8553492,-2.2442815,23.949406)"
       gradientUnits="userSpaceOnUse"
       xlink:href="#linearGradient3223-789"
       id="linearGradient3418"
       y2="30.000141"
       x2="30.037716"
       y1="24.989594"
       x1="30.037716" /><linearGradient
       gradientTransform="matrix(0.6380091,-0.6411367,0.8596262,0.8553492,-1.4235545,23.124657)"
       gradientUnits="userSpaceOnUse"
       xlink:href="#linearGradient3240-279"
       id="linearGradient3415"
       y2="30.000141"
       x2="30.037716"
       y1="24.989594"
       x1="30.037716" /><linearGradient
       gradientTransform="matrix(0.6380091,-0.6411367,0.8596262,0.8553492,-1.6062715,23.308271)"
       gradientUnits="userSpaceOnUse"
       xlink:href="#linearGradient3223-789"
       id="linearGradient3412"
       y2="30.000141"
       x2="30.037716"
       y1="24.989594"
       x1="30.037716" /><linearGradient
       gradientTransform="matrix(0.6380091,-0.6411367,0.8596263,0.8553493,-2.9388295,24.647358)"
       gradientUnits="userSpaceOnUse"
       xlink:href="#linearGradient3290-678"
       id="linearGradient3407"
       y2="26.02973"
       x2="9"
       y1="29.056757"
       x1="9" /><linearGradient
       id="linearGradient3290-678"><stop
         offset="0"
         style="stop-color:#fff394;stop-opacity:1"
         id="stop2607" /><stop
         offset="1"
         style="stop-color:#fafafa;stop-opacity:1"
         id="stop2609" /></linearGradient><linearGradient
       gradientTransform="matrix(0.5603647,0.02418622,0.02415646,0.5596736,20.269061,21.020852)"
       gradientUnits="userSpaceOnUse"
       xlink:href="#linearGradient3191-577"
       id="linearGradient3409"
       y2="41.391716"
       x2="9.5220556"
       y1="37.371799"
       x1="5.5178981" /><linearGradient
       id="linearGradient3191-577"><stop
         offset="0"
         style="stop-color:#d48e15;stop-opacity:1"
         id="stop2613" /><stop
         offset="1"
         style="stop-color:#ad5f00;stop-opacity:1"
         id="stop2615" /></linearGradient></defs><path
     d="m 38,44 c 0,1.656855 -6.268014,3 -14.000001,3 C 16.268013,47 10,45.656855 10,44 10,42.343146 16.268013,41 23.999999,41 31.731986,41 38,42.343146 38,44 l 0,0 z"
     id="path2589"
     style="opacity:0.3;fill:url(#radialGradient3001);fill-opacity:1;fill-rule:nonzero;stroke:none;stroke-width:0.80000001;marker:none;visibility:visible;display:inline;overflow:visible" /><path
     d="m 17.859462,36.249806 c 0,0 0.141772,4.25777 -0.565344,5.250194 -0.707116,0.992424 -2.114148,1.004 -2.114148,1.004 -0.902888,0.104262 -0.910357,1.996 0,1.996 l 17.63999,0 c 0.910357,0 0.903077,-1.893068 0,-1.996 0,0 -1.406971,-0.01158 -2.114077,-1.004 -0.707106,-0.992422 -0.565415,-5.250194 -0.565415,-5.250194 l -12.281006,0 z"
     id="rect1789"
     style="color:#000000;fill:url(#linearGradient3832-9);fill-opacity:1;fill-rule:nonzero;stroke:none;stroke-width:0.99827462000000000;stroke-linecap:round;stroke-linejoin:round;stroke-miterlimit:4;stroke-opacity:1;stroke-dasharray:none;stroke-dashoffset:0.50000001000000005;marker:none;visibility:visible;display:inline;overflow:visible;enable-background:new" /><path
     d="m 17.859462,36.249806 c 0,0 0.141772,4.25777 -0.565344,5.250194 -0.707116,0.992424 -2.114148,1.004 -2.114148,1.004 -0.902888,0.104262 -0.910357,1.996 0,1.996 l 17.63999,0 c 0.910357,0 0.903077,-1.893068 0,-1.996 0,0 -1.406971,-0.01158 -2.114077,-1.004 -0.707106,-0.992422 -0.565415,-5.250194 -0.565415,-5.250194 l -12.281006,0 z"
     id="rect1789-3"
     style="color:#000000;fill:none;fill-opacity:1;fill-rule:nonzero;stroke:#000000;stroke-width:0.99827462000000000;stroke-linecap:round;stroke-linejoin:round;stroke-miterlimit:4;stroke-opacity:1;stroke-dasharray:none;stroke-dashoffset:0.50000001000000005;marker:none;visibility:visible;display:inline;overflow:visible;enable-background:new;opacity:0.4" /><path
     style="color:#000000;fill:none;stroke:url(#linearGradient4073);stroke-width:0.99999994000000003;stroke-linecap:round;stroke-linejoin:round;stroke-miterlimit:4;stroke-opacity:1;stroke-dasharray:none;stroke-dashoffset:0;marker:none;visibility:visible;display:inline;overflow:visible;enable-background:accumulate"
     d="m 18.90625,33.28125 c 0,0 0.0029,4.605435 -0.03125,5.28125 -0.03123,0.618032 -0.08833,1.273442 -0.1875,1.875 -0.09917,0.601558 -0.174655,1.111917 -0.5625,1.65625 -0.855934,1.201288 -1.982095,1.34413 -2.5,1.375 l 16.75,0 c -0.517906,-0.03087 -1.644071,-0.173707 -2.5,-1.375 -0.38784,-0.544333 -0.463329,-1.054693 -0.5625,-1.65625 -0.09917,-0.601557 -0.156272,-1.256968 -0.1875,-1.875 -0.03415,-0.675815 -0.03125,-5.28125 -0.03125,-5.28125 z"
     id="path4050" /><rect
     width="46.999763"
     height="32.99976"
     rx="1.0444448"
     ry="1"
     x="0.5001179"
     y="3.5001206"
     id="rect2722"
     style="fill:#1a1a1a;fill-opacity:1;stroke:#000000;stroke-width:1.00023937;stroke-linecap:round;stroke-linejoin:round;stroke-miterlimit:4;stroke-opacity:1;stroke-dasharray:none;stroke-dashoffset:0.50000001" /><path
     style="fill:url(#linearGradient4020);fill-opacity:1;stroke:none;display:inline"
     d="M 3.0000002,6 45,6 45,34 3.0000002,34 z"
     id="rect2722-0" /><g
     id="g6104"
     transform="matrix(0.06379217,0,0,0.06379217,15.333566,5.6145062)"><g
       id="a"
       transform="matrix(19,11,0,22,-44.89581,118.81792)"
       style="fill:none;stroke-linecap:square"><path
         d="m 0.5,0.5 h 9 v 9 h -9"
         fill="#443322"
         id="path6025" /><path
         d="M 2,8 V 9 H 4 V 8 H 9 V 7 H 7 V 5"
         stroke="#886644"
         id="path6027" /><path
         d="M 1,8 V 7 H 3 V 6 H 4 M 5,9 H 7 V 8 H 6 V 4 M 7,6 H 8 V 7 M 9,4 v 1"
         stroke="#664433"
         id="path6029" /><path
         d="M 1,7 H 2 M 4,7 H 5"
         stroke="#aa7755"
         id="path6031" /><path
         d="M 4,4 V 1 H 8 V 3 H 7 V 2 H 4 V 3 H 2 v 1"
         stroke="#559933"
         id="path6033" /><path
         d="M 2,1 H 3 M 9,1 V 2"
         stroke="#66aa44"
         id="path6035" /><path
         d="M 3,2 H 4"
         stroke="#77cc55"
         id="path6037" /><path
         d="M 1,1 V 2 H 2"
         stroke="#99cc66"
         id="path6039" /></g><use
       opacity="0.5"
       transform="matrix(-1,0,0,1,271.20838,0)"
       xlink:href="#a"
       id="use6042"
       x="0"
       y="0"
       style="fill:none;stroke-linecap:square" /><g
       transform="matrix(-19,11,-19,-11,326.10419,135.81792)"
       id="g6050"
       style="fill:none;stroke-linecap:square"><path
         d="m 0.5,0.5 h 9 v 9 h -9"
         fill="#77bb44"
         id="path6044" /><path
         d="M 3,4 V 6 H 1 V 8 H 4 V 9 H 6 V 7 M 2,3 H 6 V 1 H 5 V 2 H 8 M 7,4 V 5 H 4 M 9,4 V 6 H 8 v 3"
         stroke="#88cc55"
         id="path6046" /><path
         d="M 1,3 V 5 M 5,5 V 6 M 5,8 V 9 M 7,2 v 1 m 1,4 h 1"
         stroke="#aadd77"
         id="path6048" /></g></g><path
     style="opacity:0.2;fill:#000000;fill-opacity:1;stroke:none;display:inline"
     d="m 3.0000001,6 0,28 L 45,34 45,6 z M 4,7 44,7 44,33 3.9999999,33 z"
     id="path3942" /><rect
     width="44.999996"
     height="31.000002"
     rx="0"
     ry="0"
     x="1.5000001"
     y="4.5"
     id="rect6741"
     style="opacity:0.2;fill:none;stroke:url(#linearGradient3916);stroke-width:0.99999994;stroke-linecap:round;stroke-linejoin:round;stroke-miterlimit:4;stroke-opacity:1;stroke-dasharray:none;stroke-dashoffset:0" /><path
     style="opacity:0.2;fill:url(#linearGradient3887);fill-opacity:1;stroke:none;display:inline"
     d="M 1,4 1,25 47,9.6874999 47,4 z"
     id="rect3872" /><path
     style="opacity:0.15;fill:#0c0c0c;fill-opacity:1;fill-rule:evenodd;stroke:none"
     id="path2422"
     d="m 39.191567,31.861247 c -0.173257,-0.101989 -0.307317,-0.07546 -0.395883,-0.01871 l -11.796108,7.511424 -2.17105,1.386355 -0.06684,0.02805 -2.570398,5.792049 6.370142,0.191869 0.05288,-0.03539 2.18501,-1.379007 11.793169,-7.576206 c 0.354271,-0.226993 -0.206018,-1.731414 -1.256855,-3.380625 -0.788131,-1.236902 -1.624293,-2.213844 -2.144067,-2.519809 z" /><path
     style="fill:url(#linearGradient3432);fill-opacity:1;stroke:none;stroke-width:0.5;stroke-linecap:butt;stroke-linejoin:round;stroke-miterlimit:4;stroke-dasharray:none;stroke-dashoffset:0;stroke-opacity:1"
     id="rect2383"
     d="m 25.656607,38.945209 c 0.445921,-0.334616 1.697104,0.293067 2.846888,1.43713 1.147034,1.141326 1.75142,2.362602 1.42438,2.812888 -0.0012,0.0017 0.02814,0.02504 0.02686,0.02673 L 45.96478,27.133431 c 0.406482,-0.408475 -0.225083,-1.699306 -1.411369,-2.879688 -1.186282,-1.180382 -2.480279,-1.805536 -2.886764,-1.397059 z" /><path
     style="opacity:0.6;fill:#f9c440;fill-opacity:1;stroke:none"
     id="path3208"
     d="m 25.656607,38.945207 c 0.445921,-0.334616 1.697105,0.293068 2.846887,1.43713 1.147034,1.141326 1.751421,2.362602 1.42438,2.812888 -0.0012,0.0017 0.02814,0.02504 0.02687,0.02673 l 11.025592,-11.079643 0.03988,-0.04007 c 0.0013,-0.0017 -0.02811,-0.02502 -0.02686,-0.02673 0.327034,-0.450289 -0.277353,-1.671564 -1.424386,-2.81289 -1.149783,-1.144062 -2.400968,-1.771746 -2.846889,-1.437129 l -0.03988,0.04007 -11.025589,11.079644 z" /><path
     d="m 25.656607,38.945209 c 0.445921,-0.334616 1.697104,0.293067 2.846888,1.43713 1.147034,1.141326 1.75142,2.362602 1.42438,2.812888 -0.0012,0.0017 0.02814,0.02504 0.02686,0.02673 L 45.96478,27.133431 c 0.406482,-0.408475 -0.225083,-1.699306 -1.411369,-2.879688 -1.186282,-1.180382 -2.480279,-1.805536 -2.886764,-1.397059 z"
     id="path936"
     style="fill:none;fill-opacity:1;stroke:#ad5f00;stroke-width:0.5;stroke-linecap:butt;stroke-linejoin:round;stroke-miterlimit:4;stroke-dasharray:none;stroke-dashoffset:0;stroke-opacity:1" /><path
     id="path929"
     d="m 42.122903,22.73706 c -0.19701,-0.01961 -0.35541,0.01702 -0.457032,0.119141 l -4.943359,4.96875 c 0.445921,-0.334617 1.69592,0.293438 2.845703,1.4375 1.147033,1.141326 1.752815,2.362211 1.425781,2.8125 -0.0012,0.0017 0.02669,0.02564 0.02539,0.02734 l 4.945313,-4.96875 c 0.406481,-0.408475 -0.225824,-1.698524 -1.41211,-2.878906 -0.889711,-0.885287 -1.838658,-1.45875 -2.429687,-1.517579 z"
     style="fill:url(#linearGradient933);fill-opacity:1;stroke:#555761;stroke-width:0.5;stroke-linecap:butt;stroke-linejoin:round;stroke-miterlimit:4;stroke-dasharray:none;stroke-dashoffset:0;stroke-opacity:1" /><path
     style="opacity:0.9;fill:#fe9ab8;fill-opacity:1;stroke:#de3e80;stroke-width:0.5;stroke-linecap:butt;stroke-linejoin:round;stroke-miterlimit:4;stroke-dasharray:none;stroke-dashoffset:0;stroke-opacity:1"
     id="rect3175"
     d="m 39.712746,24.820165 c 0.445921,-0.334616 1.697105,0.293068 2.846888,1.43713 1.147033,1.141325 1.75142,2.362602 1.424379,2.812887 -0.0012,0.0017 0.02814,0.02504 0.02686,0.02673 l 1.953903,-1.963482 0.03988,-0.04007 c 0.0013,-0.0017 -0.02811,-0.02502 -0.02686,-0.02673 0.327036,-0.450285 -0.277352,-1.671561 -1.424385,-2.812886 -1.149782,-1.144062 -2.400965,-1.771747 -2.846887,-1.43713 l -0.03988,0.04007 -1.953901,1.963481 z" /><path
     style="fill:url(#linearGradient3427);fill-opacity:1;stroke:none"
     id="path3233"
     d="m 37.522657,27.020988 c 0.44592,-0.334617 1.697106,0.293068 2.846888,1.43713 1.147033,1.141325 1.751421,2.362601 1.424379,2.812888 -0.0012,0.0017 0.02814,0.02504 0.02686,0.02673 l 0.199378,-0.200358 c 0.0013,-0.0017 -0.02811,-0.02502 -0.02686,-0.02673 0.327042,-0.450286 -0.277346,-1.671563 -1.42438,-2.812886 -1.149782,-1.144063 -2.400967,-1.771747 -2.846887,-1.437131 l -0.199378,0.200356 z" /><path
     style="fill:url(#linearGradient3424);fill-opacity:1;stroke:none"
     id="path3216"
     d="m 37.339939,27.204601 c 0.445922,-0.334617 1.697107,0.293067 2.846888,1.437129 1.147035,1.141326 1.751422,2.362601 1.42438,2.812887 -0.0012,0.0017 0.02813,0.02504 0.02686,0.02673 l 0.199377,-0.200357 c 0.0013,-0.0017 -0.02811,-0.02502 -0.02686,-0.02673 0.327044,-0.450285 -0.277344,-1.671561 -1.424379,-2.812886 -1.149782,-1.144062 -2.400966,-1.771747 -2.846889,-1.43713 L 37.339939,27.2046 Z" /><path
     style="fill:url(#linearGradient3421);fill-opacity:1;stroke:none"
     id="path3248"
     d="m 38.157597,26.382935 c 0.445921,-0.334617 1.697105,0.293067 2.846888,1.43713 1.147033,1.141325 1.751421,2.3626 1.42438,2.812887 -0.0012,0.0017 0.02813,0.02504 0.02686,0.02673 l 0.199378,-0.200355 c 0.0013,-0.0017 -0.02811,-0.02502 -0.02686,-0.02673 0.327041,-0.450286 -0.277346,-1.671563 -1.424381,-2.812887 -1.149782,-1.144063 -2.400964,-1.771747 -2.846888,-1.43713 z" /><path
     style="fill:url(#linearGradient3418);fill-opacity:1;stroke:none"
     id="path3250"
     d="m 37.974879,26.566548 c 0.445923,-0.334617 1.697107,0.293067 2.846888,1.437129 1.147035,1.141326 1.751422,2.362601 1.424381,2.812887 -0.0012,0.0017 0.02814,0.02504 0.02686,0.02673 l 0.199377,-0.200356 c 0.0013,-0.0017 -0.02811,-0.02502 -0.02686,-0.02673 0.327042,-0.450286 -0.277345,-1.671563 -1.424379,-2.812886 -1.149781,-1.144063 -2.400966,-1.771748 -2.846889,-1.43713 z" /><path
     style="fill:url(#linearGradient3415);fill-opacity:1;stroke:none"
     id="path3256"
     d="m 38.795607,25.741798 c 0.44592,-0.334616 1.697104,0.293068 2.846887,1.43713 1.147033,1.141325 1.751421,2.362601 1.42438,2.812887 -0.0012,0.0017 0.02813,0.02504 0.02686,0.02673 l 0.199376,-0.200356 c 0.0013,-0.0017 -0.02811,-0.02502 -0.02686,-0.02673 0.327042,-0.450285 -0.277346,-1.671562 -1.42438,-2.812887 -1.14978,-1.144062 -2.400965,-1.771747 -2.846887,-1.437129 z" /><path
     style="fill:url(#linearGradient3412);fill-opacity:1;stroke:none"
     id="path3258"
     d="m 38.61289,25.925411 c 0.445919,-0.334617 1.697105,0.293067 2.846887,1.437131 1.147033,1.141324 1.751422,2.3626 1.424379,2.812885 -0.0012,0.0017 0.02814,0.02504 0.02686,0.02673 l 0.199378,-0.200354 c 0.0013,-0.0017 -0.02811,-0.02502 -0.02686,-0.02673 0.327042,-0.450287 -0.277346,-1.671563 -1.424379,-2.812887 -1.149782,-1.144063 -2.400967,-1.771748 -2.846888,-1.43713 z" /><path
     style="fill:url(#linearGradient3407);fill-opacity:1;fill-rule:evenodd;stroke:url(#linearGradient3409);stroke-width:0.5;stroke-linecap:butt;stroke-linejoin:miter;stroke-miterlimit:4;stroke-dasharray:none;stroke-opacity:1"
     id="path3270"
     d="m 22.588506,46.227115 7.283734,-2.970838 0.06206,-0.06205 c 0.327041,-0.450289 -0.285228,-1.67166 -1.432262,-2.812988 -1.149783,-1.144062 -2.399488,-1.768277 -2.845409,-1.43366 l -3.068118,7.279536 z" /><path
     style="fill:#333333;fill-opacity:1;fill-rule:evenodd;stroke:#1a1a1a;stroke-width:0.5;stroke-linecap:butt;stroke-linejoin:miter;stroke-miterlimit:4;stroke-dasharray:none;stroke-opacity:1"
     id="path3281"
     d="m 23.419575,44.255514 -0.831516,1.96381 1.986639,-0.814434 C 24.415472,45.214166 24.26848,45.020447 24.077307,44.830226 23.857216,44.611229 23.640736,44.433539 23.419575,44.255514 Z" /></svg>
